<?xml version="1.0" encoding="UTF-8" standalone="no"?>
<!-- Created with Inkscape (http://www.inkscape.org/) -->

<svg
   width="27.439125mm"
   height="21.736649mm"
   viewBox="0 0 27.439125 21.736649"
   version="1.1"
   id="svg5"
   xml:space="preserve"
   inkscape:version="1.2.2 (1:1.2.2+202212051550+b0a8486541)"
   sodipodi:docname="pin_icons.svg"
   xmlns:inkscape="http://www.inkscape.org/namespaces/inkscape"
   xmlns:sodipodi="http://sodipodi.sourceforge.net/DTD/sodipodi-0.dtd"
   xmlns="http://www.w3.org/2000/svg"
   xmlns:svg="http://www.w3.org/2000/svg"><sodipodi:namedview
     id="namedview7"
     pagecolor="#ffffff"
     bordercolor="#666666"
     borderopacity="1.0"
     inkscape:showpageshadow="2"
     inkscape:pageopacity="0.0"
     inkscape:pagecheckerboard="0"
     inkscape:deskcolor="#d1d1d1"
     inkscape:document-units="mm"
     showgrid="false"
     inkscape:zoom="0.84096521"
     inkscape:cx="446.51074"
     inkscape:cy="399.54091"
     inkscape:window-width="1856"
     inkscape:window-height="1043"
     inkscape:window-x="64"
     inkscape:window-y="0"
     inkscape:window-maximized="1"
     inkscape:current-layer="layer1" /><defs
     id="defs2" /><g
     inkscape:label="Layer 1"
     inkscape:groupmode="layer"
     id="layer1"
     style="display:inline"
     transform="translate(-116.82318,-161.53573)"><g
       id="g1197"
       transform="matrix(0.232552,0,0,0.23235819,110.33878,151.05301)"><path
         id="rect234"
         style="fill:#000000;fill-opacity:1;stroke:#000200;stroke-width:2.5"
         d="M 144.62501,67.050714 V 137.41245 H 29.133633 V 67.050713 L 74.188324,71.1456 C 59.745491,81.602292 56.299381,89.375511 56.299381,97.961571 c 0,17.172119 13.784439,31.092879 30.78841,31.092879 17.003969,0 30.788409,-13.92076 30.788409,-31.092879 0,-8.58606 -3.44611,-16.359279 -17.67347,-26.421035 z"
         sodipodi:nodetypes="cccccssscc" /><path
         d="M 130.48969,67.855303 130.45589,61.594349 85.459483,60.792893 74.742579,46.646874 61.31762,46.137608 50.738803,60.038169 l -11.57356,-0.251575 0.750943,8.068701 35.333894,3.368991 c -11.326711,8.603039 -14.029304,14.998305 -14.029304,22.062319 0,14.128025 10.810369,25.581055 24.145645,25.581055 13.335276,0 24.145649,-11.45303 24.145649,-25.581055 0,-7.064014 -2.70259,-13.45928 -13.860328,-21.73739 z"
         style="fill:#000000;fill-opacity:1;stroke:#000200;stroke-width:2.00814"
         id="path1136"
         sodipodi:nodetypes="cccccccccssscc" /><path
         d="M 80.636571,62.611288 72.95278,48.237299 63.32737,47.719821 55.742592,61.844405"
         style="fill:#ffffff;fill-opacity:1;stroke:none;stroke-width:1.71403"
         id="path1174" /></g></g></svg>
