<?xml version="1.0" encoding="UTF-8" standalone="no"?>
<!-- Created with Inkscape (http://www.inkscape.org/) -->

<svg
   width="13.557281mm"
   height="12.231604mm"
   viewBox="0 0 13.557281 12.231604"
   version="1.1"
   id="svg5"
   xml:space="preserve"
   xmlns:inkscape="http://www.inkscape.org/namespaces/inkscape"
   xmlns:sodipodi="http://sodipodi.sourceforge.net/DTD/sodipodi-0.dtd"
   xmlns="http://www.w3.org/2000/svg"
   xmlns:svg="http://www.w3.org/2000/svg"><sodipodi:namedview
     id="namedview7"
     pagecolor="#ffffff"
     bordercolor="#666666"
     borderopacity="1.0"
     inkscape:showpageshadow="2"
     inkscape:pageopacity="0.0"
     inkscape:pagecheckerboard="0"
     inkscape:deskcolor="#d1d1d1"
     inkscape:document-units="mm"
     showgrid="false" /><defs
     id="defs2"><clipPath
       clipPathUnits="userSpaceOnUse"
       id="clipPath1395"><rect
         style="fill:none;fill-opacity:1;stroke:#000000;stroke-width:0.362252;stroke-dasharray:none;stroke-opacity:1"
         id="rect1397"
         width="129.42522"
         height="24.141052"
         x="10.955664"
         y="13.516373"
         transform="matrix(0.90794257,0.41909461,-0.4193359,0.90783115,0,0)" /></clipPath></defs><g
     inkscape:groupmode="layer"
     id="layer2"
     inkscape:label="Layer 2"
     transform="translate(-63.024126,-17.285276)"><g
       id="g1393"
       transform="matrix(0.40550255,-0.21156435,0.18693435,0.45893054,36.080877,10.452098)"
       clip-path="url(#clipPath1395)"><path
         style="fill:#939498;fill-opacity:1;stroke:#000000;stroke-width:0.0717264px;stroke-linecap:butt;stroke-linejoin:miter;stroke-opacity:1"
         d="m 43.726554,49.368531 -1.061507,2.740903 2.139103,-0.875643 5.583464,2.374512 -7.251016,3.17418 -2.113633,-1.239271 -1.845005,5.125793 10.661762,-0.117829 -2.297367,-1.549853 7.263807,-3.550564 8.298824,3.189414 -2.118372,1.284299 10.447969,-0.105879 -3.036197,-4.691828 -1.572061,1.078117 -7.898521,-2.759498 4.982485,-2.61541 2.254561,0.844658 -1.768851,-2.853008 -6.736029,0.108225 2.052209,0.662873 -5.177199,2.313474 -5.618873,-2.054839 1.712247,-0.573602 z"
         id="path624" /><path
         style="fill:#ffffff;fill-opacity:1;stroke:#000000;stroke-width:0.0711357px;stroke-linecap:butt;stroke-linejoin:miter;stroke-opacity:1"
         d="m 42.705429,52.168042 0.09351,1.524789 2.270396,-0.920453 3.437979,1.546622 1.727872,-0.59596 -5.396221,-2.453009 z"
         id="path1207"
         sodipodi:nodetypes="ccccccc" /><path
         style="fill:#ffffff;fill-opacity:1;stroke:#000000;stroke-width:0.0711357px;stroke-linecap:butt;stroke-linejoin:miter;stroke-opacity:1"
         d="M 39.244678,60.89481 50.153817,60.507482 49.930369,62.851738 39.563146,62.75361 Z"
         id="path1209"
         sodipodi:nodetypes="ccccc" /><path
         style="fill:#ffffff;fill-opacity:1;stroke:#000000;stroke-width:0.0717496px;stroke-linecap:butt;stroke-linejoin:miter;stroke-opacity:1"
         d="m 47.665261,59.083773 7.254565,-3.659213 7.907702,3.203844 -1.889186,1.230108 0.03819,0.03684 -6.213283,-2.612223 -5.29829,2.835184 0.06866,-0.03352 z"
         id="path1211"
         sodipodi:nodetypes="ccccccccc" /><path
         style="fill:#ffffff;fill-opacity:1;stroke:#000000;stroke-width:0.0711357px;stroke-linecap:butt;stroke-linejoin:miter;stroke-opacity:1"
         d="m 71.467896,60.068117 -0.184409,1.85352 -10.310984,0.206775 0.08033,-2.085561 z"
         id="path1213"
         sodipodi:nodetypes="ccccc" /><path
         style="fill:#ffffff;fill-opacity:1;stroke:#000000;stroke-width:0.0711357px;stroke-linecap:butt;stroke-linejoin:miter;stroke-opacity:1"
         d="m 66.284556,51.758349 -2.394979,-0.807343 -4.924314,2.569119 2.037263,0.448493 2.963338,-1.625919 2.06857,0.59936 z"
         id="path1215"
         sodipodi:nodetypes="ccccccc" /><path
         style="fill:#ffffff;fill-opacity:1;stroke:#000000;stroke-width:0.0711357px;stroke-linecap:butt;stroke-linejoin:miter;stroke-opacity:1"
         d="m 57.61522,49.043857 1.673621,0.456831 -1.628167,0.968064 z"
         id="path1217" /><path
         style="fill:#ffffff;fill-opacity:1;stroke:#000000;stroke-width:0.0711357px;stroke-linecap:butt;stroke-linejoin:miter;stroke-opacity:1"
         d="m 50.710721,49.268896 0.01535,1.101341 -1.519351,-0.504381 z"
         id="path1219" /><path
         style="fill:#484350;fill-opacity:1;stroke:#000000;stroke-width:0.0468508;stroke-linecap:butt;stroke-linejoin:miter;stroke-dasharray:none;stroke-opacity:1"
         d="m 54.395648,54.102661 c 0,0 0.373207,-3.837445 0.892659,-5.755255 0.471596,-1.741124 2.017203,-5.192993 2.017203,-5.192993 0,0 -1.34266,1.324992 -2.747385,1.313894 -1.771925,-0.01401 -2.496314,-1.681454 -2.496314,-1.681454 0,0 1.640179,3.825951 1.991764,5.515516 0.408125,1.961273 0.342073,5.800292 0.342073,5.800292 z"
         id="path1221"
         sodipodi:nodetypes="cscscsc" /><ellipse
         style="fill:#6f9bee;fill-opacity:1;stroke:#000000;stroke-width:0.0550818;stroke-opacity:1"
         id="path1275"
         cx="54.715237"
         cy="41.107338"
         rx="2.3713698"
         ry="3.2250023" /></g></g></svg>
