<?xml version="1.0" encoding="UTF-8" standalone="no"?>
<!-- Created with Inkscape (http://www.inkscape.org/) -->

<svg
   width="36.312988mm"
   height="31.814522mm"
   viewBox="0 0 36.312988 31.814522"
   version="1.1"
   id="svg5"
   xml:space="preserve"
   inkscape:version="1.2.2 (1:1.2.2+202212051550+b0a8486541)"
   sodipodi:docname="pin_icons.svg"
   xmlns:inkscape="http://www.inkscape.org/namespaces/inkscape"
   xmlns:sodipodi="http://sodipodi.sourceforge.net/DTD/sodipodi-0.dtd"
   xmlns="http://www.w3.org/2000/svg"
   xmlns:svg="http://www.w3.org/2000/svg"><sodipodi:namedview
     id="namedview7"
     pagecolor="#ffffff"
     bordercolor="#666666"
     borderopacity="1.0"
     inkscape:showpageshadow="2"
     inkscape:pageopacity="0.0"
     inkscape:pagecheckerboard="0"
     inkscape:deskcolor="#d1d1d1"
     inkscape:document-units="mm"
     showgrid="false"
     inkscape:zoom="0.84096521"
     inkscape:cx="446.51074"
     inkscape:cy="399.54091"
     inkscape:window-width="1856"
     inkscape:window-height="1043"
     inkscape:window-x="64"
     inkscape:window-y="0"
     inkscape:window-maximized="1"
     inkscape:current-layer="layer1" /><defs
     id="defs2" /><g
     inkscape:groupmode="layer"
     id="layer2"
     inkscape:label="Layer 2"
     transform="translate(-98.700808,-41.209677)"><g
       id="g2922"
       transform="translate(64.435157,-8.9013526)"><g
         id="g2912"
         transform="translate(-5.8123958,-1.7516309)"><ellipse
           style="fill:#000000;fill-opacity:1;stroke:#000200;stroke-width:0.853816;stroke-dasharray:none;stroke-opacity:1"
           id="path2762"
           cx="58.524635"
           cy="67.855919"
           rx="15.25462"
           ry="15.394361" /><path
           style="fill:#ffffff;fill-opacity:1;stroke:#000000;stroke-width:0.302486px;stroke-linecap:butt;stroke-linejoin:miter;stroke-opacity:1"
           d="m 54.856383,57.747157 0.307705,4.833741 -6.565751,-0.248383 0.0088,3.329473 1.815421,0.968019 -0.587459,2.444814 -0.996645,3.457566 2.586903,-0.610894 0.895134,2.636465 3.632672,2.021078 4.664588,0.918605 4.749351,-3.547555 1.487082,-7.683507 -1.105366,-6.371411 -3.802076,1.571124 -1.687681,-5.082099 z"
           id="path2870" /><path
           style="fill:#000000;fill-opacity:1;stroke:#000000;stroke-width:0.264583px;stroke-linecap:butt;stroke-linejoin:miter;stroke-opacity:1"
           d="m 55.041871,64.637006 2.034638,4.670825 4.376769,-3.608557 -3.886811,-4.074472 z"
           id="path2872" /><path
           style="fill:#000000;fill-opacity:1;stroke:#000000;stroke-width:0.264583px;stroke-linecap:butt;stroke-linejoin:miter;stroke-opacity:1"
           d="m 56.467985,68.106824 1.155608,5.028311 -3.634716,-0.05362 -0.643284,-4.1056 z"
           id="path2874" /><path
           style="fill:#000000;fill-opacity:1;stroke:#000000;stroke-width:0.264583px;stroke-linecap:butt;stroke-linejoin:miter;stroke-opacity:1"
           d="m 61.866012,67.168925 1.155608,5.028311 -3.634716,-0.05362 -0.643284,-4.1056 z"
           id="path2874-3" /></g><path
         style="fill:#000000;fill-opacity:1;stroke:none;stroke-width:0.264583px;stroke-linecap:butt;stroke-linejoin:miter;stroke-opacity:1"
         d="m 38.339692,56.484247 c 0.210769,-1.938742 -0.260204,-5.844706 -0.260204,-5.844706 l -0.454076,0.02211 c 0,0 -0.598048,3.977552 -0.684794,4.932091 l -0.486833,-4.854226 -0.227038,0.01105 -0.227038,0.01105 -0.369045,4.831701 -0.72971,-4.799006 -0.454076,0.02211 c 0,0 -0.389474,5.392234 0.0028,8.045082 0.185937,1.257443 1.210847,4.644785 0.756523,7.905828 -0.684744,4.914938 -0.940551,10.576255 -0.940551,10.576255 0,0 0.215642,1.327696 1.128894,1.439811 0.675559,0.08294 2.019831,0.08858 2.218349,-0.522911 1.341672,-4.132731 -1.581857,-8.648267 -1.21848,-12.978106 0.247821,-2.952939 1.625011,-5.852171 1.945279,-8.798133 z"
         id="path2876"
         sodipodi:nodetypes="scccccccccsscssss" /><path
         style="fill:#000000;fill-opacity:1;stroke:none;stroke-width:0.259017px;stroke-linecap:butt;stroke-linejoin:miter;stroke-opacity:1"
         d="m 70.578633,50.11103 c 0,0 -2.307339,2.254186 -2.598469,3.72185 -0.646713,3.260259 0.810146,7.333971 0.812305,10.65262 0.0034,5.254975 -1.042067,15.047121 -1.042067,15.047121 l 2.825465,0.234324 c 0,0 -0.04568,-10.073715 -0.175194,-15.347827 -0.11636,-4.73852 0.17796,-14.308088 0.17796,-14.308088 z"
         id="path2878"
         sodipodi:nodetypes="cssccsc" /></g></g></svg>
